<svg id="Слой_1" data-name="Слой 1" xmlns="http://www.w3.org/2000/svg" viewBox="0 0 521.7 575.3"><defs><style>.cls-1{fill:none;stroke:#1d1d1b;stroke-miterlimit:10;stroke-width:3px;}.cls-2{fill:#1d1d1b;}</style></defs><circle class="cls-1" cx="242.47" cy="188.32" r="100.91"/><path class="cls-2" d="M396.37,292.36c9.38,22,8.18,47,1.42,69.54-7.19,24-20.92,44.19-32.43,66.12a2.58,2.58,0,0,0,4.45,2.6c14.15-21.38,26.8-45.93,33.45-70.77,6.15-23,6.43-47.56-3.37-69.54-1.07-2.41-4.53-.32-3.52,2.05Z" transform="translate(-31.68 -151.18)"/><path class="cls-2" d="M281.58,495.88c15.78-11,31.26-22.51,46.84-33.83,15.14-11,31.14-21.39,45.58-33.3,2.19-1.81-.67-5.49-3-3.94-15.79,10.27-30.59,22.54-45.72,33.77s-30.56,22.46-45.57,34c-1.89,1.45-.13,4.71,1.91,3.28Z" transform="translate(-31.68 -151.18)"/><path class="cls-2" d="M199.93,427.83a187.38,187.38,0,0,1,79.13,68.22c2,3.06,6.9.26,4.94-2.89a174.38,174.38,0,0,0-82.62-68.76c-1.95-.79-3.38,2.55-1.45,3.43Z" transform="translate(-31.68 -151.18)"/><path class="cls-2" d="M147.79,303.79c-12.62,38.5,13,76.86,38,104,2.49,2.7,6.11-1.2,3.94-3.95-11.47-14.53-23.72-28-31.81-44.86s-11.39-36-5.77-54c.87-2.78-3.44-3.94-4.34-1.2Z" transform="translate(-31.68 -151.18)"/><path class="cls-2" d="M147.87,304.52c15-16,28.33-33.22,44.63-48s34.86-27.46,55.73-35.12c19.56-7.18,40.77-9.67,61.2-4.9,18.21,4.26,34.92,13.55,49.05,25.68a159.78,159.78,0,0,1,38.59,50.27c1.7,3.39,6.84.4,5.1-3-17.54-34.15-46.85-64.7-84.27-76.22-42.73-13.17-86.36,4.54-119.46,31.75a320.64,320.64,0,0,0-53.74,57.1c-1.36,1.85,1.62,4.09,3.17,2.44Z" transform="translate(-31.68 -151.18)"/><path class="cls-2" d="M146.29,298.44c-1.29,5.73-1.26,11.93-1.74,17.77-.23,2.85,4.27,2.86,4.46,0,.37-5.67,1.29-11.61.87-17.28-.14-1.94-3.11-2.62-3.59-.49Z" transform="translate(-31.68 -151.18)"/><path class="cls-2" d="M180.87,408.48a135.21,135.21,0,0,0-8.15,19.31c-.68,2,2.55,3.45,3.51,1.48a135.49,135.49,0,0,0,7.64-19.52c.54-1.76-2.14-2.94-3-1.27Z" transform="translate(-31.68 -151.18)"/><path class="cls-2" d="M132.18,473.61c-8.31,31.37-11.48,64.81-13,97.14a548.86,548.86,0,0,0,4.54,98c2.49,18.55,5.19,37.73,10.53,55.71,1.06,3.55,6.11,2,5.47-1.5-2.84-15.84-6.61-31.45-9-47.39q-3.65-24.39-5.07-49A569.52,569.52,0,0,1,128,530.21c2.07-18.61,5.62-36.89,8.72-55.34.49-2.94-3.77-4.26-4.57-1.26Z" transform="translate(-31.68 -151.18)"/><path class="cls-2" d="M375.82,414.51c1.57,13.43,2.76,27.12,5.31,40.4.58,3,5.6,2.36,5.39-.73-.95-13.49-3.33-27-5.27-40.41-.44-3-5.79-2.36-5.43.74Z" transform="translate(-31.68 -151.18)"/><path class="cls-2" d="M397,507.78c6.16,29.16,11.9,58.14,14.15,87.93q1.65,21.93,1.34,44c-.22,14.68-1.69,29.25-2.29,43.9-.13,3,4.83,3.79,5.34.72,2.41-14.63,2.79-29.82,3-44.62q.3-22.49-1.47-44.92c-2.33-29.61-6.71-59.78-15.71-88.16a2.25,2.25,0,0,0-4.34,1.19Z" transform="translate(-31.68 -151.18)"/><path class="cls-2" d="M362.21,435.3c-4,5.54-5.47,13.78-7.61,20.24-2.41,7.3-4.84,14.59-7.15,21.92-1,3.16,3.88,4.45,4.93,1.36,2.48-7.28,4.83-14.59,7.2-21.9,2.1-6.45,5.77-13.93,5.78-20.77a1.7,1.7,0,0,0-3.15-.85Z" transform="translate(-31.68 -151.18)"/><path class="cls-2" d="M354.11,508.93a302.75,302.75,0,0,0-7.21,70.32c.22,23.14,1.78,48,8.5,70.22.9,3,5,1.68,4.56-1.26-1.75-11.66-4.27-23.17-5.66-34.89a320.58,320.58,0,0,1-2.16-34.07c-.27-23.24,2.14-46.29,6.18-69.16.48-2.72-3.57-3.93-4.21-1.16Z" transform="translate(-31.68 -151.18)"/><path class="cls-2" d="M352.08,477.45a305.82,305.82,0,0,1,152-30.58c3.35.19,3.32-5,0-5.2a301.47,301.47,0,0,0-154.46,31.57c-2.81,1.41-.35,5.58,2.46,4.21Z" transform="translate(-31.68 -151.18)"/><path class="cls-2" d="M505.22,446.16c.07-1.89.43-3.83,2.34-4.75a4.3,4.3,0,0,1,6.2,3.7,2.68,2.68,0,0,0,2.64,2.64l1.36,4.32c-3.41,1.11-2,5.92,1.46,5.31,3.24.07,4.34,1.43,3.29,4.06a4.63,4.63,0,0,1-3.76.71v6.66c3-.24,5.86,3.48,3,5.94-1.9,1.64-4.11.59-5.92-.5-2.22-1.33-5.54,1.5-3.79,3.78,4,5.16,12.74,4.28,15.85-1.5,3.65-6.81-2.47-13.6-9.14-14.38-3.7-.44-4.59,6-.89,6.54,5.27.85,10.84-3,10.75-8.76s-5.77-8.8-10.85-7.86l1.46,5.31c9.57-3.2,6.42-16.27-3.52-14.81l3.34,2.54c-.62-5.29-4.71-10.08-10.5-9.23a9.13,9.13,0,0,0-7.42,10.84c.49,2.37,4,1.72,4.1-.56Z" transform="translate(-31.68 -151.18)"/><path class="cls-2" d="M395.83,507.45c8.24,3.78,17.52.88,25.34-2.62,10.29-4.6,19.93-10.21,30.56-14.12a174.42,174.42,0,0,1,31.2-8.3c11.26-1.9,22.62-1.31,33.84-2.85,2.23-.31,2.12-4,0-4.39-9.52-1.83-20.12-.37-29.64.93a175.93,175.93,0,0,0-31,7,172.2,172.2,0,0,0-27.88,11.92c-10,5.34-19.11,10.7-30.76,8.4-2.25-.45-4.06,2.89-1.68,4Z" transform="translate(-31.68 -151.18)"/><path class="cls-2" d="M495.63,442.92c-6.68,9.29-8.71,25.62-3.16,35.86,1.42,2.61,4.85.68,4.46-1.88-.87-5.58-2.36-10.7-1.91-16.45s2.31-10.68,4.29-16c.86-2.29-2.45-3.27-3.68-1.56Z" transform="translate(-31.68 -151.18)"/><path class="cls-2" d="M501.19,458.54a5.79,5.79,0,0,0,1.75,3.95,5.51,5.51,0,0,0,1.63,1.1,4.47,4.47,0,0,0,2.68.28,1.92,1.92,0,0,0,0-3.71s-.61-.19-.22-.05-1.1-.44-.53-.2a3.55,3.55,0,0,1-.43-.23c-.12-.08-.11-.06,0,.05l-.21-.19a2.24,2.24,0,0,1-.33-.36c.24.33-.09-.19-.1-.22.17.3,0-.1-.07-.21-.15-.4,0,.25,0-.21a2.09,2.09,0,0,0-4.17,0Z" transform="translate(-31.68 -151.18)"/><path class="cls-2" d="M504.16,453.29l4.31-.05a2.46,2.46,0,0,0,0-4.92l-4.31-.05c-3.23,0-3.24,5.05,0,5Z" transform="translate(-31.68 -151.18)"/><path class="cls-2" d="M173.33,433.53a146.79,146.79,0,0,0,22.25,5.07c2.84.35,3-3.9.64-4.74-6.86-2.38-14.44-3.8-21.58-5.07-3.07-.55-4.4,3.85-1.31,4.74Z" transform="translate(-31.68 -151.18)"/><path class="cls-2" d="M198.77,404c-5.84,7.2-7.52,22.93-1.75,30.66,1.23,1.64,4.51,1.37,4.33-1.17-.33-4.56-2-8.74-2-13.4,0-5,1.61-9.49,2.48-14.31.29-1.59-1.78-3.34-3.06-1.78Z" transform="translate(-31.68 -151.18)"/><path class="cls-2" d="M182.1,499.13c-25,63.53-23.19,137.58,6.19,199.43,1.54,3.24,6.21.42,4.78-2.79-27.54-61.58-30.77-132.15-7.49-195.68.81-2.2-2.64-3.09-3.48-1Z" transform="translate(-31.68 -151.18)"/><path class="cls-2" d="M185.6,498.87c-38.81-9.81-63.22-43.16-75.62-79.34-14-40.71-19.58-85-20-127.9a454.2,454.2,0,0,1,5.6-75c.57-3.63-5-5.19-5.56-1.53a463.47,463.47,0,0,0-1.14,138c5.89,41.27,15.46,87.27,43.85,119.44a102.3,102.3,0,0,0,24,20.18,71.14,71.14,0,0,0,28.31,9.7c2,.27,2.38-3,.47-3.5Z" transform="translate(-31.68 -151.18)"/><path class="cls-2" d="M113.58,232.25c-6.23,17-4.75,35.17-1.7,52.71,3.32,19,7.54,38.05,12.63,56.65,4.71,17.22,10.71,34.19,19.25,49.92a152.06,152.06,0,0,0,13.33,20.52c4.78,6.19,10.13,13,16.71,17.33,2.46,1.62,4.63-1.83,3-3.83-5.45-6.5-11.77-12-16.87-18.88a152.87,152.87,0,0,1-12.13-19.37c-8.06-15.19-13.68-31.51-18.17-48.08-4.65-17.18-8.29-34.67-11.76-52.13-3.53-17.79-5.61-36.11-.45-53.8.72-2.46-2.94-3.39-3.8-1Z" transform="translate(-31.68 -151.18)"/><path class="cls-2" d="M112.18,217.91c-.81,10.06-1.64,20.13-2.24,30.21-.16,2.76,4,2.71,4.27,0,.82-10.06,1.4-20.14,2-30.21.15-2.61-3.83-2.57-4,0Z" transform="translate(-31.68 -151.18)"/><path class="cls-2" d="M93.79,221.08a15.67,15.67,0,0,0,2.34-12,19.8,19.8,0,0,0-2.25-5.94c-1.42-2.47-3.88-4.45-3.63-7.52h5.69c.23-3.08.38-8.07,3.63-9.61,3-1.39,6.17,1.26,4.14,4.48-1.91,3.05,2.89,5.83,4.81,2.81,1.64-2.59,5.94-.22,3.82,2.46s1.63,6.68,3.91,3.91q2.5-3.34,3.23,2.1c-1.08,1.27-1.12,3.46.56,4.32,6.89,3.53,5.06,13.31-3,13.27-3.5,0-3.51,5.5,0,5.44,13.11-.23,17.7-17.31,5.77-23.46l.55,4.32c6.75-7.85-4.36-18-11-9.9l3.91,3.91c7.22-9.1-6.29-19-12.54-9.18l4.81,2.81c3.14-5,.43-12.57-5.67-13.62-9.22-1.58-12,9.13-12.6,15.94-.34,3.65,5.32,3.6,5.69,0,.66-6.43-8.54-7.62-11-2.17-1.49,3.35-.08,7.05,2,9.76,1.66,2.11,3.86,3.66,4.71,6.33,1.08,3.34.41,6.64-.94,9.77a1.73,1.73,0,0,0,3,1.75Z" transform="translate(-31.68 -151.18)"/><path class="cls-2" d="M103.59,202.39c-.28,2.3-.63,4.6-.81,6.9s3.66,2.85,4,.55c.42-2.47.66-5,1-7.45a2.12,2.12,0,0,0-2.11-2.11,2.16,2.16,0,0,0-2.11,2.11Z" transform="translate(-31.68 -151.18)"/><path class="cls-2" d="M128.83,219c1.8,3,4.71,5.44,7.1,8,2.57,2.72,5.06,5.59,7.8,8.14,2.48,2.31,5.84-1.15,3.68-3.68-2.44-2.84-5.19-5.45-7.8-8.13-2.43-2.5-4.76-5.47-7.67-7.4-1.93-1.28-4.25,1.22-3.11,3.11Z" transform="translate(-31.68 -151.18)"/><path class="cls-2" d="M120.64,223.69l8,8.33c2.57,2.64,4.9,5.51,8.11,7.36a2.29,2.29,0,0,0,3.11-3.11c-1.78-3.26-4.61-5.64-7.21-8.26l-8.15-8.23c-2.51-2.54-6.39,1.35-3.91,3.91Z" transform="translate(-31.68 -151.18)"/><path class="cls-2" d="M150.13,230q.23,9.69.57,19.38l2.87-2.18c-5.83-2.06-11.42-4.7-17.29-6.7l1.32,5c5.16-4.55,11.43-8.95,15.48-14.54,1.28-1.77-1.13-3.58-2.76-2.76-6.18,3.09-11.61,8.73-16.94,13.08-1.87,1.53-.6,4.32,1.31,5,5.84,2,11.83,3.35,17.68,5.31a2.28,2.28,0,0,0,2.86-2.19q-.51-9.69-1.12-19.38c-.16-2.54-4-2.59-4,0Z" transform="translate(-31.68 -151.18)"/><path class="cls-2" d="M147.29,235.14l.48,9.29c.14,2.55,3.95,2.58,4,0l.15-8.05L148,237.43a4.05,4.05,0,0,1-.5,4.85l3.66,1c-.53-2.26-1.19-4.48-1.83-6.71-.57-2-4-2.32-4.39,0l-.9,5.43,4.49.6.13-6.31c.06-2.75-3.61-2.88-4.5-.61a67,67,0,0,1-2.92,6.94l4.59.6-2.11-5.71a2.59,2.59,0,0,0-5,1.38,9.13,9.13,0,0,0,1.09,3.55c1,1.52,4,1.62,4.37-.57a10.27,10.27,0,0,0-.47-4.36l-5,1.38,2.26,5.66c.86,2.16,4.14,2.6,4.84,0a75,75,0,0,1,2.75-7.65l-4.5-.61-.12,6.31c0,2.51,4.07,3.2,4.49.61l.88-5.43H145c.64,2.23,1.25,4.47,2,6.67.48,1.4,2.56,2.35,3.67,1a8.63,8.63,0,0,0,1-10.06,2.1,2.1,0,0,0-3.88,1l0,8.05h4l-.69-9.29c-.18-2.41-3.92-2.46-3.79,0Z" transform="translate(-31.68 -151.18)"/><path class="cls-2" d="M63.1,167.34l-.24-.11a1.85,1.85,0,0,0-2.49.65l-.21.4a1.93,1.93,0,0,0,.68,2.57c10.15,5.92,19.44,13.38,29.64,19.26,2.52,1.46,4.56-2.22,2.25-3.84-5.3-3.72-11-7-16.46-10.43-4.2-2.63-9.19-7.11-14-8.42l1.31,2.31.1-.45-2.23,1.27.27,0c1.82.32,3.35-2.34,1.37-3.25Z" transform="translate(-31.68 -151.18)"/><path class="cls-2" d="M61.09,178.13c2.45,3,6.49,4.77,9.76,6.79,3.65,2.26,7.26,4.91,11.17,6.67,2.29,1,5.32-2,3-3.82-3.35-2.64-7.23-4.61-10.89-6.77s-7.22-5.08-11.24-5.88a1.82,1.82,0,0,0-1.76,3Z" transform="translate(-31.68 -151.18)"/><path class="cls-2" d="M44.86,186.46l9.63-4.67c3-1.44,6.16-2.64,8.74-4.7,1.83-1.47-.17-4.3-2.19-3.76-3.17.83-6.08,2.79-9,4.31l-9.46,5c-2.56,1.34-.31,5.08,2.25,3.85Z" transform="translate(-31.68 -151.18)"/><path class="cls-2" d="M33,180.14c4.26,2.4,8.56,4.68,12.9,6.94,2.41,1.25,4.55-2.42,2.13-3.65-4.37-2.21-8.75-4.38-13.18-6.45-2.1-1-3.94,2-1.85,3.16Z" transform="translate(-31.68 -151.18)"/><path class="cls-2" d="M34.1,179.68c5.25-4,11-7.79,15.6-12.52,1.53-1.57-.48-4.43-2.41-3.13-5.49,3.69-10.3,8.64-15.15,13.11-1.32,1.22.48,3.66,2,2.54Z" transform="translate(-31.68 -151.18)"/><path class="cls-2" d="M41,156.3c1,4.59,2.67,9.12,4,13.61.57,1.84,3.66,2.14,4,0,.23-1.26.33-2.53.45-3.8.2-2.18-3.26-2.59-3.77-.52-.27,1.07-.56,2.12-.73,3.2h4c-1.53-4.62-2.84-9.42-4.75-13.9-.85-2-3.76-.5-3.34,1.41Z" transform="translate(-31.68 -151.18)"/><path class="cls-2" d="M42.26,155c2.91,1,6.19.95,9.24,1.25l10.22,1c3,.3,3-4.4,0-4.64-6.22-.51-13.28-2-19.46-1.16-1.93.27-1.53,3,0,3.53Z" transform="translate(-31.68 -151.18)"/><path class="cls-2" d="M57.81,155.84a157.25,157.25,0,0,0,1.25,16.95c.34,2.22,3.89,1.64,3.87-.53a150.91,150.91,0,0,0-1.41-16.42c-.28-2.29-3.8-2.44-3.71,0Z" transform="translate(-31.68 -151.18)"/><path class="cls-2" d="M486.12,349.34C511.76,370.75,531.6,399,541.36,431c10,32.72,8.56,67.7-2.91,99.89A164.62,164.62,0,0,1,509,581.73c-2.53,3,1.74,7.4,4.38,4.38C561,531.51,566.42,449.54,528,388.5a153.37,153.37,0,0,0-39.39-42.43c-1.9-1.39-4.35,1.76-2.53,3.27Z" transform="translate(-31.68 -151.18)"/><path class="cls-2" d="M511,380c.44,10.66,1.77,21.36,2.77,32,1,10.19,1.74,20.49,3.2,30.63.35,2.43,4.39,1.85,4.28-.58-.47-10.66-1.7-21.37-2.7-32-1-10.2-1.64-20.51-3.13-30.65-.37-2.51-4.52-1.91-4.42.6Z" transform="translate(-31.68 -151.18)"/><path class="cls-2" d="M515.74,482.63c.2,14.7,1.83,29.5,2.89,44.16,1,14.21,1.47,28.69,3.4,42.81.36,2.62,4.59,1.94,4.56-.62-.17-14.68-2-29.52-3.1-44.15-1.1-14.22-1.69-28.62-3.6-42.76-.33-2.38-4.18-1.77-4.15.56Z" transform="translate(-31.68 -151.18)"/><path class="cls-2" d="M246.58,368.17c2.69-.65,4.91-2.37,7.57-3.21a26.32,26.32,0,0,1,8.22-1.25c6,0,11.23,2.31,16.14,5.61,2.39,1.6,5.05-2,3-3.94-5.08-5-12.14-7.27-19.18-7.28-5.9,0-14.74,1.67-18.09,7.07a2.07,2.07,0,0,0,2.3,3Z" transform="translate(-31.68 -151.18)"/><path class="cls-2" d="M217.11,299a54.17,54.17,0,0,1,21.06-6c7.17-.5,13.68,1.06,20.64,2.4,2,.39,3.65-2.55,1.51-3.6-13.88-6.8-32.21-3.45-45,4.17-2,1.16-.23,4.07,1.78,3Z" transform="translate(-31.68 -151.18)"/><path class="cls-2" d="M222.48,312.11c9,3.49,19.33,4.73,28.72,2,2.85-.82,1.6-4.76-1.2-4.34-9.17,1.4-17.53,1.36-26.4-1.73-2.59-.9-3.61,3.11-1.12,4.07Z" transform="translate(-31.68 -151.18)"/><path class="cls-2" d="M304.71,301.94c5.9-2.77,10.73-5.43,17.47-5.55a33.16,33.16,0,0,1,17.6,4.89c2.51,1.46,4.56-2.23,2.25-3.85-10.69-7.48-29.93-8.48-39.65,1.49-1.59,1.63.41,3.92,2.33,3Z" transform="translate(-31.68 -151.18)"/><path class="cls-2" d="M303.71,321c10.46,4.74,24.76,3.42,34.53-2.38,2.42-1.44.83-5.79-2-4.72-4.93,1.88-9.8,3.66-15.1,4.13s-10.4-.38-15.71-1.14c-2.26-.32-4.29,2.95-1.73,4.11Z" transform="translate(-31.68 -151.18)"/><path class="cls-2" d="M180.53,662.58c6.79-6.26,12.55-13.72,18.52-20.75q8.7-10.23,17.38-20.49,18-21.26,36-42.55,35.25-41.88,70.6-83.66c13.47-16,27.26-31.74,40.21-48.13,1.72-2.17-1.17-5.27-3.11-3.12-24.65,27.28-47.83,56-71.58,84.09q-36,42.54-72,85.06l-19.88,23.59c-6.49,7.71-13.52,15.26-19,23.71-1.19,1.82,1.4,3.63,2.9,2.25Z" transform="translate(-31.68 -151.18)"/><path class="cls-2" d="M183.48,409.28a18.29,18.29,0,0,0,1.64-4.58,2,2,0,0,0-1.17-2.38,2,2,0,0,0-2.51.82,17.93,17.93,0,0,0-1.38,4.69,1.9,1.9,0,0,0,1.08,2.21,1.86,1.86,0,0,0,2.34-.76Z" transform="translate(-31.68 -151.18)"/><path class="cls-2" d="M185.34,406.52c1.6,1.92,3.29,3.76,5,5.61,1.52,1.66,3,3.93,5.18,4.61a2.08,2.08,0,0,0,2.54-2.53c-.48-2.22-2.77-3.92-4.27-5.53-1.7-1.83-3.39-3.66-5.17-5.41-2.14-2.11-5.12,1-3.25,3.25Z" transform="translate(-31.68 -151.18)"/></svg>