<svg xmlns="http://www.w3.org/2000/svg" viewBox="0 0 288.61 396"><defs><style>.cls-1,.cls-2{fill:none;}.cls-1,.cls-2,.cls-3{stroke:#000;stroke-miterlimit:10;}.cls-1{stroke-width:5px;}.cls-2,.cls-3{stroke-width:3px;}.cls-3,.cls-4{fill:#fff;}.cls-5{font-size:37.12px;font-family:MyriadPro-Regular, Myriad Pro;}</style></defs><g id="Слой_2" data-name="Слой 2"><path class="cls-1" d="M143.55,395.41c.36,0,5.77-65,10.53-123,4.48-54.71,7.36-90.45,7.27-89.38" transform="translate(-5.77 -2.5)"/><path class="cls-1" d="M89.56,227.5a562,562,0,0,0,64.52,44.88c14.29,3.17,20,26.83,26.85,47.67" transform="translate(-5.77 -2.5)"/><path class="cls-1" d="M81.25,206.36" transform="translate(-5.77 -2.5)"/><path class="cls-1" d="M16,71.77" transform="translate(-5.77 -2.5)"/><path class="cls-1" d="M16,89.85" transform="translate(-5.77 -2.5)"/><path class="cls-1" d="M65.87,212.66" transform="translate(-5.77 -2.5)"/><path class="cls-1" d="M237.89,116c8.52,42.17-24.53,73.92-78.32,68.83-52.39-5-89.59-35.89-78.32-68.83,15-43.82,32.33-70,78.32-68.82C209.45,48.42,229.5,74.4,237.89,116Z" transform="translate(-5.77 -2.5)"/><path class="cls-2" d="M150.08,81.54c0,8.52-7.17,15.43-16,15.43-6.53,0-13.57-7.09-16-15.43s8.52-15.43,16-15.43C142.91,66.11,150.08,73,150.08,81.54Z" transform="translate(-5.77 -2.5)"/><path class="cls-2" d="M208.22,108.24c.95,4.39-4.49,11.47-11.27,11.27-6.94-.21-13.38-8-11.27-11.27C189,103,190.73,97,197,97S206.91,102.15,208.22,108.24Z" transform="translate(-5.77 -2.5)"/><path class="cls-2" d="M113.29,134.94c-.34,3.44,4.58,7,14.92,13.37" transform="translate(-5.77 -2.5)"/><path class="cls-3" d="M143.55,55.79c9.95,3,17.52,19.77,18.4,38.8" transform="translate(-5.77 -2.5)"/><path class="cls-3" d="M180.93,99.34c7.73-8.14,16.6-16.63,27.4-9.49" transform="translate(-5.77 -2.5)"/><circle class="cls-3" cx="124.13" cy="73.11" r="1.19"/><circle class="cls-3" cx="189.4" cy="103.96" r="1.19"/></g><g id="Слой_3" data-name="Слой 3"><rect class="cls-3" x="87.92" y="214.32" width="10.09" height="33.23" transform="translate(-72.53 37.49) rotate(-17.98)"/><rect class="cls-3" x="65.29" y="203.97" width="42.89" height="13.05" transform="translate(-66.53 34.56) rotate(-17.98)"/><path class="cls-2" d="M69.39,88.66,58.71,78c-15.47,16-11.92,65.6,18,128.9L86,203.76C70.14,162.7,61.8,119.2,69.39,88.66Z" transform="translate(-5.77 -2.5)"/></g><g id="рамка"><path d="M207.38,9a80.59,80.59,0,0,1,80.5,80.5V372.81a18.62,18.62,0,0,1-18.6,18.6h-221a36,36,0,0,1-36-36V27.6A18.62,18.62,0,0,1,30.87,9H207.38m0-4H30.87A22.6,22.6,0,0,0,8.27,27.6V355.41a40,40,0,0,0,40,40h221a22.6,22.6,0,0,0,22.6-22.6V89.5A84.5,84.5,0,0,0,207.38,5Z" transform="translate(-5.77 -2.5)"/><rect class="cls-1" x="2.5" y="2.5" width="283.61" height="391" rx="11.7"/><path class="cls-4" d="M264.59,57.59a25.3,25.3,0,1,1,25.29-25.3A25.32,25.32,0,0,1,264.59,57.59Z" transform="translate(-5.77 -2.5)"/><path d="M264.59,9A23.3,23.3,0,1,1,241.3,32.29,23.32,23.32,0,0,1,264.59,9m0-4a27.3,27.3,0,1,0,27.29,27.29A27.29,27.29,0,0,0,264.59,5Z" transform="translate(-5.77 -2.5)"/><text id="_5" data-name="5" class="cls-5" transform="translate(249.55 41.87)">1</text></g></svg>